<svg width="66" height="66" viewBox="0 0 66 66" fill="none" xmlns="http://www.w3.org/2000/svg">
<path d="M13.75 41.25C11.165 41.25 8.7725 42.1575 6.875 43.67C4.345 45.6775 2.75 48.785 2.75 52.25C2.75 54.3125 3.3275 56.265 4.34501 57.915C6.24251 61.105 9.735 63.25 13.75 63.25C16.5275 63.25 19.0575 62.2325 20.9825 60.5C21.835 59.785 22.5775 58.905 23.155 57.915C24.1725 56.265 24.75 54.3125 24.75 52.25C24.75 46.1725 19.8275 41.25 13.75 41.25ZM19.4425 51.0675L13.585 56.4849C13.2 56.8424 12.6775 57.035 12.1825 57.035C11.66 57.035 11.1375 56.8426 10.725 56.4301L8.00251 53.7076C7.20501 52.9101 7.20501 51.5899 8.00251 50.7924C8.80001 49.9949 10.12 49.9949 10.9175 50.7924L12.2375 52.1125L16.6375 48.0424C17.4625 47.2724 18.7825 47.3275 19.5525 48.1525C20.3225 48.9775 20.2675 50.2975 19.4425 51.0675Z" fill="#292D32"></path>
<path d="M53.57 35.6125H59.125V31.6525C59.125 25.96 54.4775 21.3125 48.785 21.3125H17.215C11.5225 21.3125 6.875 25.96 6.875 31.6525V43.67C8.7725 42.1575 11.165 41.25 13.75 41.25C19.8275 41.25 24.75 46.1725 24.75 52.25C24.75 54.3125 24.1725 56.265 23.155 57.915C22.5775 58.905 21.835 59.785 20.9825 60.5H48.785C54.4775 60.5 59.125 55.8525 59.125 50.16V46.8875H53.9C50.93 46.8875 48.2075 44.715 47.96 41.745C47.795 40.0125 48.455 38.39 49.61 37.2625C50.6275 36.2175 52.03 35.6125 53.57 35.6125Z" fill="#FFCC00"></path>
<path d="M40.8375 10.8625V21.3124H17.215C11.5225 21.3124 6.875 25.96 6.875 31.6525V21.56C6.875 18.2875 8.88249 15.3724 11.935 14.2174L33.77 5.96739C37.18 4.70239 40.8375 7.20497 40.8375 10.8625Z" fill="#292D32"></path>
<path d="M62.04 38.4174V44.0826C62.04 45.5951 60.83 46.8325 59.29 46.8875H53.9C50.93 46.8875 48.2075 44.715 47.96 41.745C47.795 40.0125 48.455 38.39 49.61 37.2625C50.6275 36.2175 52.03 35.6125 53.57 35.6125H59.29C60.83 35.6675 62.04 36.9049 62.04 38.4174Z" fill="#292D32"></path>
<path d="M38.5 35.0625H19.25C18.1225 35.0625 17.1875 34.1275 17.1875 33C17.1875 31.8725 18.1225 30.9375 19.25 30.9375H38.5C39.6275 30.9375 40.5625 31.8725 40.5625 33C40.5625 34.1275 39.6275 35.0625 38.5 35.0625Z" fill="#292D32"></path>
</svg>
