<svg width="85" height="86" viewBox="0 0 85 86" fill="none" xmlns="http://www.w3.org/2000/svg">
<g clip-path="url('#clip0_27_1124')">
<path d="M80.2036 5.94312H33.5585C31.054 5.94312 29.0236 7.97348 29.0236 10.4781V51.9403C29.0236 54.4449 31.054 56.4752 33.5585 56.4752H80.2036C82.7081 56.4752 84.7385 54.4449 84.7385 51.9403V10.4781C84.7385 7.97348 82.7081 5.94312 80.2036 5.94312Z" fill="#FFCC00"></path>
<path d="M67.3762 44.49V48.3771C67.333 48.8738 67.3762 49.9967 65.4326 49.9967C63.9778 49.9967 60.034 50.0399 58.2415 49.9967C57.637 49.932 56.4146 49.5173 56.3628 48.3771C56.3109 47.2369 56.3413 46.0017 56.3628 45.5266C56.3628 44.2309 56.596 44.49 57.788 44.49H67.3762Z" fill="black"></path>
<path d="M53.6418 37.6877C53.2964 40.5813 51.2966 46.3688 46.062 46.3688H29.4771V37.6877H53.6418Z" fill="black"></path>
<path d="M52.0222 12.7455C54.484 12.7455 61.2864 23.6294 61.2864 23.6294H29.4771V12.7455H52.0222Z" fill="black"></path>
<path d="M52.0222 12.7455C54.484 12.7455 61.2864 23.6294 61.2864 23.6294H29.4771V12.7455M52.0222 12.7455C50.3786 12.7455 37.7399 12.7455 29.4771 12.7455M52.0222 12.7455H29.4771M46.062 46.3688C51.2966 46.3688 53.2964 40.5813 53.6418 37.6877H29.4771V46.3688M46.062 46.3688H29.4771M46.062 46.3688C42.4874 46.3688 35.4508 46.3688 29.4771 46.3688M67.3762 44.4901V48.3771C67.333 48.8738 67.3762 49.9968 65.4326 49.9968C63.9778 49.9968 60.034 50.0399 58.2415 49.9968C57.6369 49.932 56.4146 49.5174 56.3628 48.3771C56.3109 47.2369 56.3413 46.0017 56.3628 45.5266C56.3628 44.2309 56.596 44.4901 57.788 44.4901M67.3762 44.4901C64.6768 44.4901 58.9801 44.4901 57.788 44.4901M67.3762 44.4901H57.788M29.2827 9.76542C34.2104 9.76542 47.0945 9.76542 52.0222 9.76542C57.0106 9.76542 63.6187 21.6858 63.6187 21.6858C63.6187 21.6858 66.0982 17.6242 68.4775 17.9283C70.536 18.1915 72.634 19.6492 72.235 21.6858C71.8952 23.4211 70.2451 24.262 68.4775 24.2124C67.6855 24.1903 66.534 23.6294 66.534 23.6294C66.534 23.6294 65.1087 24.1476 66.534 24.9251C67.9592 25.7025 70.2915 27.2573 70.2915 29.2009C70.2915 31.1444 70.6802 40.4734 70.6802 46.3688C70.6802 47.0476 69.5141 47.9236 69.5141 47.9236C69.5141 47.9236 69.5141 52.1994 67.3762 52.1994C65.2383 52.1994 59.4076 52.1994 57.205 52.1994C55.0023 52.1994 53.1235 49.0898 53.1235 49.0898H29.0236" stroke="black" stroke-width="0.906987"></path>
<path d="M65.8212 28.4882C65.8212 28.4882 54.8078 32.764 53.9008 33.1527C52.9938 33.5414 54.6784 34.9667 54.6784 34.9667C55.5206 35.7441 55.7796 35.77 56.557 35.8737C57.5288 36.0032 64.2841 35.3554 66.4043 33.4118C67.1817 32.6992 67.1817 30.5613 67.0521 29.0713C66.9485 27.8792 66.4043 28.2939 65.8212 28.4882Z" fill="black"></path>
<path d="M-0.259117 0.918177C0.112488 3.0781 1.40106 5.34337 2.20296 7.38421C3.50008 10.685 4.75095 14.0046 6.04781 17.3048C6.87057 19.3989 7.89184 21.5201 8.50989 23.6822H12.053L14.1955 18.0133L18.2001 7.73859L19.9191 3.30977L20.7333 0.918177H17.6333L16.4302 1.00926L15.9127 2.15829L14.7818 5.34699L10.2814 18.1019C8.50198 14.1061 7.25708 9.74601 5.8221 5.61274C5.43157 4.48795 5.02615 3.3651 4.61723 2.24691C4.48546 1.88632 4.38478 1.23472 4.04402 1.00926C3.74678 0.812708 3.18134 0.918177 2.84109 0.918177H-0.259117Z" fill="black"></path>
<path d="M1.06949 31.5655V54.3294H5.23256V37.8544H5.32118L7.97736 42.5488L12.1548 49.8121L14.0016 53.0008L14.8278 54.2382L16.2159 54.3294H19.4932C19.4932 51.9822 19.4047 49.1478 19.4047 46.7119V31.654H15.3302V48.0406C14.2075 46.9331 13.4566 44.9464 12.7011 43.5608C11.2968 40.9856 9.80727 38.4555 8.35764 35.9057C7.78624 34.9007 7.20085 33.9034 6.63735 32.8941C6.42499 32.5136 6.21107 31.8911 5.82339 31.6566C5.47343 31.4446 4.83012 31.5655 4.43532 31.5655H1.06949Z" fill="black"></path>
<path d="M3.01807 62.2127V84.9768H7.18114V75.0563C7.90829 75.7604 8.46556 76.7906 9.04344 77.6249C10.0923 79.1395 11.179 80.6276 12.2277 82.1423C12.7206 82.8535 13.4968 84.5711 14.2959 84.9235C14.7141 85.1078 15.4108 84.9768 15.8615 84.9768H19.316L17.2233 82.0537L13.1713 76.562L11.547 74.3477L10.9529 73.4105L11.4703 72.5761L13.0014 70.5388L17.4006 64.7814L19.2275 62.3013H15.6844L14.2074 62.3926L12.2813 64.9585L8.87747 69.6531L7.18114 71.9561V62.2127H3.01807Z" fill="black"></path>
<path fill-rule="evenodd" clip-rule="evenodd" d="M30.3193 80.2209V62.5995C30.986 62.5995 31.7197 62.5596 32.4857 62.518C35.0837 62.377 38.0526 62.2158 40.037 63.5207C42.6612 65.2453 42.8493 70.4669 40.037 72.1423C38.2576 73.202 35.9565 73.1043 33.8249 73.0139C33.2437 72.9891 32.6751 72.965 32.1333 72.965V80.2209H30.3193ZM47.9407 80.2209V62.5995C48.579 62.5995 49.2783 62.5653 50.0089 62.5295C52.8351 62.3911 56.1304 62.2298 58.1762 63.9379C60.264 65.6806 60.602 69.7219 58.797 71.7976C57.8034 72.9391 56.2642 73.425 54.8079 73.6129C55.7491 74.923 56.8358 76.2728 57.9632 77.6729C58.632 78.5039 59.3153 79.3524 59.9907 80.2209H57.4641L55.6666 77.8887L51.5687 72.1876C51.7462 72.1876 51.9271 72.1892 52.1102 72.1907C53.5419 72.2032 55.1164 72.2168 56.3628 71.4931C58.5021 70.2505 58.8185 66.8338 56.8759 65.2595C55.3237 64.0022 52.9862 64.0707 50.9544 64.1302C50.5386 64.1425 50.1355 64.1543 49.7547 64.1543V80.2209H47.9407ZM40.5553 67.8774C40.5553 63.2128 34.9838 64.1543 32.1333 64.1543V71.4931C35.1781 71.4931 40.5553 72.5419 40.5553 67.8774Z" fill="black"></path>
<path fill-rule="evenodd" clip-rule="evenodd" d="M68.8014 64.2215C70.2788 63.0567 71.8908 62.5294 73.7251 62.2663C82.1341 61.0626 87.5527 72.2147 81.2388 77.9961C79.7397 79.3669 77.791 80.1534 75.7982 80.4242C66.7904 81.6512 61.588 69.9045 68.8014 64.2215ZM66.9875 71.4405C67.0406 67.3531 70.4858 63.6016 74.5673 63.6016C78.6487 63.6016 82.3618 67.5498 82.4062 71.4405C82.454 75.6278 78.3248 79.0851 74.5673 79.0851C70.8098 79.0851 66.9369 75.3272 66.9875 71.4405Z" fill="black"></path>
<path d="M29.2827 10.1871V9.34382H29.1988C29.1532 9.5063 29.0884 9.83022 29.0651 10.1871H29.2827Z" fill="black" stroke="black" stroke-width="0.0647848"></path>
</g>
<defs>
<clipPath id="clip0_27_1124">
<rect width="84.7385" height="84.2202" fill="white" transform="translate(0 0.889908)"></rect>
</clipPath>
</defs>
</svg>
