<svg width="42" height="44" viewBox="0 0 42 44" fill="none" xmlns="http://www.w3.org/2000/svg">
<rect y="0.5" width="42" height="43" rx="10" fill="url('#paint0_linear_20_121')"></rect>
<path fill-rule="evenodd" clip-rule="evenodd" d="M11.3126 21.3718C16.4057 19.2372 19.8102 17.8575 21.5261 17.1807C26.3741 15.2544 27.3818 14.9159 28.0355 14.8899C28.1716 14.8899 28.4985 14.9159 28.7164 15.0721C28.8798 15.2023 28.9342 15.3845 28.9615 15.5147C28.9887 15.6448 29.016 15.9312 28.9887 16.1655C28.7164 18.7947 27.5997 25.2245 27.0005 28.166C26.7554 29.4156 26.2651 29.8321 25.8021 29.8841C24.7944 29.9622 24.0046 29.2333 23.0241 28.6346C21.4989 27.6714 20.6273 27.0727 19.1293 26.1356C17.4135 25.0422 18.5301 24.4435 19.5106 23.4803C19.7558 23.22 24.2497 19.3413 24.3314 18.9769C24.3314 18.9248 24.3586 18.7686 24.2497 18.6905C24.1407 18.6124 24.0046 18.6385 23.8956 18.6645C23.7322 18.6905 21.281 20.2524 16.5147 23.3242C15.8066 23.7927 15.1801 24.001 14.6082 24.001C13.9817 24.001 12.7834 23.6626 11.8846 23.3762C10.7952 23.0378 9.9236 22.8556 10.0053 22.2829C10.0598 21.9965 10.4956 21.6842 11.3126 21.3718Z" fill="white"></path>
<defs>
<linearGradient id="paint0_linear_20_121" x1="0" y1="21.9844" x2="41.9696" y2="21.9844" gradientUnits="userSpaceOnUse">
<stop stop-color="#2AABEE"></stop>
<stop offset="1" stop-color="#229ED9"></stop>
</linearGradient>
</defs>
</svg>
