<svg width="45" height="46" viewBox="0 0 45 46" fill="none" xmlns="http://www.w3.org/2000/svg">
<rect width="44.9302" height="46" rx="10.6977" fill="white" fill-opacity="0.1"></rect>
<path fill-rule="evenodd" clip-rule="evenodd" d="M12.1019 22.328C17.5503 20.0445 21.1924 18.5686 23.0279 17.8445C28.2141 15.7838 29.2922 15.4218 29.9914 15.3939C30.1371 15.3939 30.4868 15.4218 30.7198 15.5889C30.8947 15.7281 30.9529 15.923 30.9821 16.0623C31.0112 16.2015 31.0403 16.5078 31.0112 16.7585C30.7198 19.5711 29.5253 26.4495 28.8843 29.5963C28.622 30.933 28.0976 31.3786 27.6023 31.4342C26.5243 31.5178 25.6793 30.7381 24.6304 30.0976C22.9988 29.0672 22.0664 28.4267 20.464 27.4242C18.6284 26.2546 19.823 25.6141 20.8719 24.5837C21.1341 24.3052 25.9415 20.1559 26.0289 19.766C26.0289 19.7103 26.0581 19.5432 25.9415 19.4597C25.825 19.3762 25.6793 19.404 25.5628 19.4319C25.3879 19.4597 22.7657 21.1306 17.6669 24.4166C16.9094 24.9179 16.2392 25.1406 15.6274 25.1406C14.9572 25.1406 13.6753 24.7786 12.7138 24.4723C11.5483 24.1103 10.616 23.9153 10.7034 23.3027C10.7616 22.9964 11.2278 22.6622 12.1019 22.328Z" fill="white"></path>
</svg>
