<svg width="42" height="44" viewBox="0 0 42 44" fill="none" xmlns="http://www.w3.org/2000/svg">
<rect y="0.5" width="42" height="43" rx="10" fill="#25D366"></rect>
<path fill-rule="evenodd" clip-rule="evenodd" d="M28.6605 13.3031C26.6903 11.3619 24.0813 10.1966 21.3163 10.0227C18.5512 9.84879 15.8167 10.6796 13.618 12.3595C11.4192 14.0393 9.90502 16.4554 9.35405 19.1624C8.8041 21.8683 9.25508 24.682 10.6254 27.0828L9 33L15.075 31.4127C16.7544 32.3258 18.6379 32.8037 20.551 32.8037C22.8161 32.7997 25.0292 32.1275 26.9107 30.8717C28.7931 29.6158 30.2593 27.8333 31.1266 25.7476C31.9939 23.662 32.2214 21.368 31.7816 19.1532C31.3419 16.9384 30.2542 14.9037 28.6564 13.3051H28.6605V13.3031ZM20.5541 30.8737C18.8481 30.8737 17.1748 30.4171 15.7065 29.5508L15.3586 29.3392L11.7477 30.2809L12.7119 26.7859L12.4864 26.4279C11.3641 24.6453 10.8672 22.5424 11.0753 20.4477C11.2825 18.3539 12.1834 16.3873 13.6343 14.8589C15.0852 13.3296 17.0044 12.3249 19.0909 12.0015C21.1775 11.6781 23.312 12.0554 25.1608 13.0733C27.0086 14.0912 28.4656 15.6918 29.3013 17.6248C30.1369 19.5569 30.3042 21.7117 29.7777 23.7495C29.2513 25.7873 28.0595 27.5933 26.3913 28.8827C24.7231 30.1721 22.6712 30.8727 20.5602 30.8737H20.5541ZM25.7689 23.7647C25.4842 23.6203 24.0701 22.9309 23.813 22.8353C23.5558 22.7397 23.361 22.694 23.1753 22.9797C22.9906 23.2654 22.4366 23.9071 22.2682 24.0973C22.1009 24.2874 21.9346 24.3088 21.6479 24.1695C20.8051 23.8369 20.0276 23.361 19.347 22.7641C18.7216 22.1865 18.1849 21.5205 17.7543 20.7873C17.589 20.5016 17.737 20.347 17.8798 20.2057C18.0216 20.0643 18.1665 19.8731 18.3043 19.7064C18.4216 19.562 18.5175 19.4013 18.5889 19.2305C18.6277 19.1522 18.6451 19.0647 18.641 18.9773C18.6369 18.8898 18.6114 18.8054 18.5655 18.7302C18.4951 18.5858 17.9278 17.1825 17.6839 16.613C17.4401 16.0436 17.2146 16.1321 17.0472 16.1239C16.8799 16.1158 16.6901 16.1239 16.4993 16.1239C16.3544 16.128 16.2116 16.1616 16.08 16.2236C15.9484 16.2856 15.832 16.3731 15.7361 16.4819C15.4137 16.7839 15.1566 17.1489 14.9821 17.5547C14.8076 17.9604 14.7199 18.3977 14.723 18.838C14.723 20.2433 15.7484 21.5896 15.8912 21.7889C16.033 21.9883 17.9115 24.863 20.7765 26.0995C21.3091 26.3293 21.854 26.5296 22.408 26.7005C22.9926 26.8774 23.6099 26.915 24.2109 26.8123C24.7608 26.7299 25.9097 26.1219 26.1434 25.4558C26.377 24.7887 26.3811 24.2172 26.3107 24.0993C26.2423 23.9783 26.0648 23.9071 25.7689 23.7647Z" fill="white"></path>
</svg>
