<svg width="46" height="46" viewBox="0 0 46 46" fill="none" xmlns="http://www.w3.org/2000/svg">
<rect x="0.41864" width="44.9302" height="46" rx="10.6977" fill="white" fill-opacity="0.1"></rect>
<path fill-rule="evenodd" clip-rule="evenodd" d="M31.0786 13.6963C28.9709 11.6197 26.1799 10.3731 23.222 10.187C20.264 10.001 17.3388 10.8898 14.9866 12.6868C12.6344 14.4839 11.0146 17.0686 10.4252 19.9644C9.83688 22.8591 10.3193 25.8691 11.7852 28.4374L10.0464 34.7674L16.5453 33.0693C18.3419 34.0462 20.3568 34.5575 22.4033 34.5575C24.8265 34.5531 27.194 33.8341 29.2067 32.4906C31.2205 31.1472 32.789 29.2402 33.7168 27.0091C34.6445 24.778 34.8879 22.3239 34.4175 19.9546C33.9471 17.5853 32.7835 15.4086 31.0742 13.6985H31.0786V13.6963ZM22.4066 32.4928C20.5816 32.4928 18.7916 32.0044 17.2209 31.0775L16.8487 30.8513L12.9859 31.8586L14.0173 28.1198L13.7761 27.7368C12.5755 25.8299 12.0439 23.5803 12.2666 21.3394C12.4881 19.0996 13.4519 16.9957 15.0041 15.3607C16.5562 13.7246 18.6093 12.6499 20.8414 12.3039C23.0735 11.958 25.357 12.3616 27.3348 13.4505C29.3115 14.5394 30.8701 16.2516 31.7641 18.3196C32.658 20.3864 32.837 22.6915 32.2738 24.8715C31.7106 27.0515 30.4357 28.9835 28.6511 30.3628C26.8665 31.7422 24.6715 32.4917 22.4132 32.4928H22.4066ZM27.9853 24.8878C27.6808 24.7334 26.1679 23.9958 25.8929 23.8936C25.6178 23.7913 25.4093 23.7424 25.2107 24.048C25.0131 24.3537 24.4204 25.0401 24.2403 25.2436C24.0613 25.447 23.8834 25.4698 23.5767 25.3208C22.6751 24.9651 21.8434 24.456 21.1154 23.8174C20.4463 23.1995 19.8722 22.487 19.4115 21.7027C19.2347 21.397 19.393 21.2317 19.5458 21.0805C19.6975 20.9293 19.8525 20.7248 19.9999 20.5464C20.1254 20.3919 20.228 20.22 20.3044 20.0373C20.3459 19.9535 20.3644 19.8599 20.3601 19.7664C20.3557 19.6728 20.3284 19.5825 20.2793 19.502C20.204 19.3476 19.5971 17.8464 19.3362 17.2372C19.0754 16.628 18.8341 16.7227 18.6551 16.714C18.4761 16.7053 18.2731 16.714 18.069 16.714C17.914 16.7183 17.7612 16.7542 17.6204 16.8206C17.4796 16.8869 17.3551 16.9805 17.2525 17.0969C16.9076 17.42 16.6326 17.8105 16.4459 18.2445C16.2593 18.6786 16.1654 19.1463 16.1687 19.6174C16.1687 21.1207 17.2656 22.561 17.4185 22.7742C17.5702 22.9874 19.5796 26.0627 22.6446 27.3855C23.2143 27.6313 23.7972 27.8456 24.3899 28.0284C25.0153 28.2177 25.6757 28.2579 26.3186 28.148C26.9069 28.0599 28.1359 27.4094 28.3859 26.6969C28.6358 25.9833 28.6402 25.3719 28.5649 25.2457C28.4917 25.1163 28.3018 25.0401 27.9853 24.8878Z" fill="white"></path>
</svg>
